<svg width="352" height="125" viewBox="0 0 352 125" fill="none" xmlns="http://www.w3.org/2000/svg">
<path fill-rule="evenodd" clip-rule="evenodd" d="M112.517 31.2721C112.517 31.2721 39.9707 26.418 0 58.9558C0 58.9558 22.3366 32.1443 79.9793 26.418C104.895 16.5201 130.265 4.49856 159.655 1.04758C189.045 -2.4034 239.483 3.0575 269.594 11.7798C269.594 11.7798 216.843 27.2523 188.628 25.9629C209.296 24.8252 235.463 12.9554 235.463 12.9554C201.37 3.8918 178.275 3.05749 153.626 7.64616C128.976 12.2348 89.991 26.8351 89.991 26.8351C95.0347 28.5417 112.517 31.2721 112.517 31.2721ZM350.369 56.377C331.825 2.48865 269.594 29.4897 177.707 35.1402C215.971 31.6134 263.943 24.2564 282.601 14.8136C296.102 18.53 339.675 21.1088 352 17.8095C349.27 21.981 339.523 23.5358 339.523 23.5358C339.523 23.5358 353.744 37.1501 350.369 56.377Z" fill="white"/>
<path d="M47.4794 53.6466C53.6229 45.3794 65.0377 39.8427 78.1211 39.8427C91.2803 39.8427 102.733 45.4553 108.877 53.7983H100.609C94.883 47.048 85.0989 42.611 73.9875 42.611C62.952 42.611 53.2437 46.9722 47.4794 53.6466Z" fill="white"/>
<path d="M253.514 49.3613C260.189 41.1321 272.59 35.5953 286.773 35.5953C301.07 35.5953 313.508 41.2079 320.183 49.5509H311.195C304.976 42.8007 294.357 38.3258 282.26 38.3258C270.314 38.3258 259.734 42.7248 253.514 49.3613Z" fill="white"/>
<path d="M32.408 109.768C27.8427 109.768 23.896 108.957 20.568 107.336C17.2827 105.672 14.744 103.389 12.952 100.488C11.16 97.544 10.264 94.152 10.264 90.312C10.264 86.5147 10.9253 82.9733 12.248 79.688C13.6133 76.4027 15.512 73.5653 17.944 71.176C20.4187 68.744 23.3413 66.8453 26.712 65.48C30.1253 64.1147 33.9227 63.432 38.104 63.432C42.1147 63.432 45.656 64.1147 48.728 65.48C51.8 66.8453 54.1253 68.808 55.704 71.368L48.216 77.512C47.064 75.8053 45.592 74.504 43.8 73.608C42.008 72.712 39.8747 72.264 37.4 72.264C34.8827 72.264 32.6 72.712 30.552 73.608C28.504 74.4613 26.7333 75.6987 25.24 77.32C23.7893 78.8987 22.68 80.7547 21.912 82.888C21.144 85.0213 20.76 87.2827 20.76 89.672C20.76 91.9333 21.2507 93.9173 22.232 95.624C23.2133 97.288 24.6427 98.5893 26.52 99.528C28.3973 100.467 30.6587 100.936 33.304 100.936C35.608 100.936 37.7627 100.531 39.768 99.72C41.7733 98.8667 43.5867 97.544 45.208 95.752L51.352 102.024C49.0053 104.755 46.2107 106.739 42.968 107.976C39.768 109.171 36.248 109.768 32.408 109.768ZM49.0305 109L77.9585 64.2H88.2625L99.2705 109H88.9025L80.1985 69.32H84.2945L60.1025 109H49.0305ZM60.9985 99.4L65.2225 91.528H88.3265L89.5425 99.4H60.9985ZM103.919 109L112.879 64.2H131.119C136.708 64.2 141.017 65.416 144.047 67.848C147.119 70.28 148.655 73.6933 148.655 78.088C148.655 81.8427 147.759 85.1067 145.967 87.88C144.217 90.6107 141.7 92.7227 138.415 94.216C135.172 95.7093 131.332 96.456 126.895 96.456H112.303L117.743 91.912L114.351 109H103.919ZM132.719 109L123.567 92.744H134.447L143.663 109H132.719ZM117.487 93.128L113.903 88.2H127.279C130.735 88.2 133.401 87.432 135.279 85.896C137.199 84.3173 138.159 82.0347 138.159 79.048C138.159 76.872 137.412 75.272 135.919 74.248C134.468 73.1813 132.42 72.648 129.775 72.648H117.167L122.607 67.592L117.487 93.128ZM192.658 109.768C188.093 109.768 184.146 108.957 180.818 107.336C177.533 105.672 174.994 103.389 173.202 100.488C171.41 97.544 170.514 94.152 170.514 90.312C170.514 86.5147 171.175 82.9733 172.498 79.688C173.863 76.4027 175.762 73.5653 178.194 71.176C180.669 68.744 183.591 66.8453 186.962 65.48C190.375 64.1147 194.173 63.432 198.354 63.432C202.365 63.432 205.906 64.1147 208.978 65.48C212.05 66.8453 214.375 68.808 215.954 71.368L208.466 77.512C207.314 75.8053 205.842 74.504 204.05 73.608C202.258 72.712 200.125 72.264 197.65 72.264C195.133 72.264 192.85 72.712 190.802 73.608C188.754 74.4613 186.983 75.6987 185.49 77.32C184.039 78.8987 182.93 80.7547 182.162 82.888C181.394 85.0213 181.01 87.2827 181.01 89.672C181.01 91.9333 181.501 93.9173 182.482 95.624C183.463 97.288 184.893 98.5893 186.77 99.528C188.647 100.467 190.909 100.936 193.554 100.936C195.858 100.936 198.013 100.531 200.018 99.72C202.023 98.8667 203.837 97.544 205.458 95.752L211.602 102.024C209.255 104.755 206.461 106.739 203.218 107.976C200.018 109.171 196.498 109.768 192.658 109.768ZM216.044 109L225.004 64.2H235.436L228.14 100.552H250.604L248.876 109H216.044ZM275.226 109.768C270.874 109.768 267.247 108.915 264.346 107.208C261.445 105.501 259.397 103.133 258.202 100.104C257.05 97.032 256.879 93.4267 257.69 89.288L262.682 64.2H273.114L268.122 89.096C267.738 91.1013 267.631 92.8507 267.802 94.344C267.973 95.8373 268.399 97.0747 269.082 98.056C269.807 99.0373 270.789 99.7627 272.026 100.232C273.263 100.701 274.714 100.936 276.378 100.936C278.469 100.936 280.282 100.531 281.818 99.72C283.354 98.9093 284.634 97.6293 285.658 95.88C286.682 94.1307 287.471 91.8693 288.026 89.096L293.018 64.2H303.194L298.138 89.736C296.815 96.3493 294.234 101.341 290.394 104.712C286.554 108.083 281.498 109.768 275.226 109.768ZM304.544 109L313.504 64.2H335.136C340 64.2 343.712 65.0747 346.272 66.824C348.874 68.5733 350.176 71.112 350.176 74.44C350.176 77.256 349.429 79.624 347.936 81.544C346.485 83.464 344.544 84.9147 342.112 85.896C339.68 86.8773 337.034 87.368 334.176 87.368L335.84 84.808C339.594 84.808 342.581 85.6827 344.8 87.432C347.061 89.1387 348.192 91.6133 348.192 94.856C348.192 98.0133 347.317 100.659 345.568 102.792C343.861 104.883 341.493 106.44 338.464 107.464C335.434 108.488 331.957 109 328.032 109H304.544ZM316.448 101.192H328.672C331.53 101.192 333.77 100.659 335.392 99.592C337.056 98.4827 337.888 96.8613 337.888 94.728C337.888 93.064 337.269 91.8907 336.032 91.208C334.837 90.4827 333.216 90.12 331.168 90.12H317.472L319.008 82.568H330.656C332.448 82.568 333.984 82.3333 335.264 81.864C336.586 81.3947 337.589 80.6907 338.272 79.752C338.954 78.7707 339.296 77.5973 339.296 76.232C339.296 74.7387 338.72 73.672 337.568 73.032C336.416 72.3493 334.794 72.008 332.704 72.008H322.208L316.448 101.192Z" fill="white"/>
</svg>
